<svg width="61" height="47" viewBox="0 0 61 47" fill="none" xmlns="http://www.w3.org/2000/svg">
<path d="M32.4062 7.2217C23.0418 7.2217 15.1189 12.4995 12.4264 19.7757C16.4295 18.0335 20.9449 17.0599 25.7344 17.0599H36.2188C37.2672 17.0599 38.125 17.7978 38.125 18.6997C38.125 19.6015 37.2672 20.3394 36.2188 20.3394H34.3125H25.7344C23.7566 20.3394 21.8385 20.5341 19.9918 20.8928C16.9061 21.4974 14.0348 22.5735 11.4852 24.039C4.56309 28.005 0 34.779 0 42.4754V44.1151C0 45.4781 1.2748 46.5747 2.85938 46.5747C4.44395 46.5747 5.71875 45.4781 5.71875 44.1151V42.4754C5.71875 37.4846 8.18496 32.9959 12.1285 29.8497C14.4875 37.587 22.6725 43.2953 32.4062 43.2953H32.5254C48.2639 43.2235 61 29.8804 61 13.4321C61 9.06637 60.1064 4.91586 58.4861 1.17527C58.1764 0.468151 56.9731 0.498895 56.5561 1.16503C54.3162 4.77238 49.8842 7.2217 44.7969 7.2217H32.4062Z" fill="black"/>
</svg>
