<svg width="61" height="47" viewBox="0 0 61 47" fill="none" xmlns="http://www.w3.org/2000/svg">
<path d="M32.4062 7.22652C23.0418 7.22652 15.1189 12.5043 12.4264 19.7805C16.4295 18.0383 20.9449 17.0648 25.7344 17.0648H36.2188C37.2672 17.0648 38.125 17.8026 38.125 18.7045C38.125 19.6063 37.2672 20.3442 36.2188 20.3442H34.3125H25.7344C23.7566 20.3442 21.8385 20.5389 19.9918 20.8976C16.9061 21.5022 14.0348 22.5783 11.4852 24.0438C4.56309 28.0098 0 34.7839 0 42.4802V44.12C0 45.483 1.2748 46.5795 2.85938 46.5795C4.44395 46.5795 5.71875 45.483 5.71875 44.12V42.4802C5.71875 37.4894 8.18496 33.0007 12.1285 29.8545C14.4875 37.5919 22.6725 43.3001 32.4062 43.3001H32.5254C48.2639 43.2284 61 29.8852 61 13.4369C61 9.07119 60.1064 4.92068 58.4861 1.1801C58.1764 0.472972 56.9731 0.503717 56.5561 1.16985C54.3162 4.77721 49.8842 7.22652 44.7969 7.22652H32.4062Z" fill="black"/>
</svg>
