<svg width="60" height="60" viewBox="0 0 60 60" fill="none" xmlns="http://www.w3.org/2000/svg">
<path d="M46.7578 45.0234C44.168 40.5234 39.3047 37.5 33.75 37.5H26.25C20.6953 37.5 15.832 40.5234 13.2422 45.0234C17.3672 49.6172 23.3438 52.5 30 52.5C36.6562 52.5 42.6328 49.6055 46.7578 45.0234ZM0 30C0 22.0435 3.16071 14.4129 8.7868 8.7868C14.4129 3.16071 22.0435 0 30 0C37.9565 0 45.5871 3.16071 51.2132 8.7868C56.8393 14.4129 60 22.0435 60 30C60 37.9565 56.8393 45.5871 51.2132 51.2132C45.5871 56.8393 37.9565 60 30 60C22.0435 60 14.4129 56.8393 8.7868 51.2132C3.16071 45.5871 0 37.9565 0 30ZM30 31.875C32.2378 31.875 34.3839 30.9861 35.9662 29.4037C37.5485 27.8214 38.4375 25.6753 38.4375 23.4375C38.4375 21.1997 37.5485 19.0536 35.9662 17.4713C34.3839 15.8889 32.2378 15 30 15C27.7622 15 25.6161 15.8889 24.0338 17.4713C22.4514 19.0536 21.5625 21.1997 21.5625 23.4375C21.5625 25.6753 22.4514 27.8214 24.0338 29.4037C25.6161 30.9861 27.7622 31.875 30 31.875Z" fill="black"/>
</svg>
