<svg width="390" height="72" viewBox="0 0 390 72" fill="none" xmlns="http://www.w3.org/2000/svg">
<rect width="390" height="72" fill="#D9D9D9"/>
<path d="M83.9861 35.9648C83.9861 37.2305 82.9444 38.2219 81.7639 38.2219H79.5417L79.5903 49.4859C79.5903 49.6758 79.5764 49.8656 79.5556 50.0555V51.1875C79.5556 52.7414 78.3125 54 76.7778 54H75.6667C75.5903 54 75.5139 54 75.4375 53.993C75.3403 54 75.2431 54 75.1458 54H72.8889H71.2222C69.6875 54 68.4444 52.7414 68.4444 51.1875V49.5V45C68.4444 43.7555 67.4514 42.75 66.2222 42.75H61.7778C60.5486 42.75 59.5556 43.7555 59.5556 45V49.5V51.1875C59.5556 52.7414 58.3125 54 56.7778 54H55.1111H52.8958C52.7917 54 52.6875 53.993 52.5833 53.9859C52.5 53.993 52.4167 54 52.3333 54H51.2222C49.6875 54 48.4444 52.7414 48.4444 51.1875V43.3125C48.4444 43.2492 48.4444 43.1789 48.4514 43.1156V38.2219H46.2222C44.9722 38.2219 44 37.2375 44 35.9648C44 35.332 44.2083 34.7695 44.6944 34.2773L62.5 18.5625C62.9861 18.0703 63.5417 18 64.0278 18C64.5139 18 65.0694 18.1406 65.4861 18.4922L83.2222 34.2773C83.7778 34.7695 84.0556 35.332 83.9861 35.9648Z" fill="black"/>
<path d="M199.778 18H184.222C182.382 18 180.882 19.5328 180.951 21.3891C180.965 21.7617 180.979 22.1344 181 22.5H173.667C172.743 22.5 172 23.2523 172 24.1875C172 30.6984 174.326 35.2266 177.451 38.2992C180.528 41.3297 184.278 42.8555 187.042 43.6289C188.667 44.0859 189.778 45.457 189.778 46.8352C189.778 48.3047 188.597 49.5 187.146 49.5H185.333C184.104 49.5 183.111 50.5055 183.111 51.75C183.111 52.9945 184.104 54 185.333 54H198.667C199.896 54 200.889 52.9945 200.889 51.75C200.889 50.5055 199.896 49.5 198.667 49.5H196.854C195.403 49.5 194.222 48.3047 194.222 46.8352C194.222 45.457 195.326 44.0789 196.958 43.6289C199.729 42.8555 203.479 41.3297 206.556 38.2992C209.674 35.2266 212 30.6984 212 24.1875C212 23.2523 211.257 22.5 210.333 22.5H203C203.021 22.1344 203.035 21.7687 203.049 21.3891C203.118 19.5328 201.618 18 199.778 18ZM175.396 25.875H181.257C181.889 32.2102 183.285 36.443 184.861 39.2766C183.132 38.5031 181.333 37.4133 179.778 35.8805C177.556 33.6938 175.75 30.5367 175.403 25.875H175.396ZM204.229 35.8805C202.674 37.4133 200.875 38.5031 199.146 39.2766C200.722 36.443 202.118 32.2102 202.75 25.875H208.611C208.257 30.5367 206.451 33.6938 204.236 35.8805H204.229Z" fill="black"/>
<path d="M305 22.5C305 21.3065 305.421 20.1619 306.172 19.318C306.922 18.4741 307.939 18 309 18C310.061 18 311.078 18.4741 311.828 19.318C312.579 20.1619 313 21.3065 313 22.5C313 23.6935 312.579 24.8381 311.828 25.682C311.078 26.5259 310.061 27 309 27C307.939 27 306.922 26.5259 306.172 25.682C305.421 24.8381 305 23.6935 305 22.5ZM302.619 34.4109C302.831 31.493 305 29.25 307.6 29.25H310.4C312.088 29.25 313.588 30.1922 314.494 31.6477C314.325 31.7812 314.169 31.9289 314.025 32.0906L310.025 36.5906C308.656 38.1305 308.656 40.6195 310.025 42.1594L313 45.5063V50.625C313 52.4883 311.656 54 310 54H308C306.344 54 305 52.4883 305 50.625V42.4898C303.344 41.8219 302.206 39.9727 302.363 37.8773L302.619 34.4109ZM329 22.5C329 21.3065 329.421 20.1619 330.172 19.318C330.922 18.4741 331.939 18 333 18C334.061 18 335.078 18.4741 335.828 19.318C336.579 20.1619 337 21.3065 337 22.5C337 23.6935 336.579 24.8381 335.828 25.682C335.078 26.5259 334.061 27 333 27C331.939 27 330.922 26.5259 330.172 25.682C329.421 24.8381 329 23.6935 329 22.5ZM327.975 32.0906C327.831 31.9289 327.669 31.7812 327.506 31.6477C328.413 30.1922 329.919 29.25 331.6 29.25H334.4C337 29.25 339.169 31.493 339.381 34.4109L339.638 37.8773C339.794 39.9727 338.656 41.8219 337 42.4898V50.625C337 52.4883 335.656 54 334 54H332C330.344 54 329 52.4883 329 50.625V45.5063L331.975 42.1594C333.344 40.6195 333.344 38.1305 331.975 36.5906L327.975 32.0906ZM318 34.875V37.125H324V34.875C324 34.193 324.363 33.5742 324.925 33.3141C325.488 33.0539 326.131 33.1945 326.563 33.6797L330.563 38.1797C331.15 38.8406 331.15 39.9094 330.563 40.5633L326.563 45.0633C326.131 45.5484 325.488 45.6891 324.925 45.4289C324.363 45.1688 324 44.55 324 43.868V41.625H318V43.875C318 44.557 317.638 45.1758 317.075 45.4359C316.513 45.6961 315.869 45.5555 315.438 45.0703L311.438 40.5703C310.85 39.9094 310.85 38.8406 311.438 38.1867L315.438 33.6867C315.869 33.2016 316.513 33.0609 317.075 33.3211C317.638 33.5812 318 34.2 318 34.882V34.875Z" fill="black"/>
</svg>
